<?xml version="1.0" encoding="utf-8"?>
<!-- Uploaded to: SVG Repo, www.svgrepo.com, Generator: SVG Repo Mixer Tools -->
<svg fill="#000000" width="800px" height="800px" viewBox="0 0 32 32" version="1.1" xmlns="http://www.w3.org/2000/svg">
<title>wifi</title>
<path d="M16 20.75c-2.347 0-4.25 1.903-4.25 4.25s1.903 4.25 4.25 4.25c2.347 0 4.25-1.903 4.25-4.25v0c-0.003-2.346-1.904-4.247-4.25-4.25h-0zM16 26.75c-0.966 0-1.75-0.784-1.75-1.75s0.784-1.75 1.75-1.75c0.966 0 1.75 0.784 1.75 1.75v0c-0.001 0.966-0.784 1.749-1.75 1.75h-0zM30.885 9.116c-3.891-3.71-9.086-6.083-14.831-6.364l-0.054-0.002c-5.798 0.282-10.994 2.655-14.893 6.375l0.009-0.009c-0.228 0.226-0.369 0.54-0.369 0.887 0 0.69 0.56 1.25 1.25 1.25 0.347 0 0.66-0.141 0.887-0.369l0-0c3.445-3.246 8.011-5.336 13.060-5.631l0.057-0.003c5.103 0.308 9.667 2.396 13.128 5.645l-0.011-0.010c0.226 0.226 0.539 0.366 0.884 0.366 0.69 0 1.25-0.56 1.25-1.25 0-0.345-0.14-0.658-0.366-0.884v0zM16 11.607c-4.24 0.205-8.039 1.939-10.891 4.658l0.007-0.006c-0.227 0.226-0.367 0.539-0.367 0.884 0 0.69 0.559 1.25 1.25 1.25 0.345 0 0.657-0.14 0.883-0.365l-0 0c2.4-2.249 5.571-3.701 9.077-3.918l0.042-0.002c3.547 0.219 6.718 1.67 9.125 3.927l-0.008-0.007c0.226 0.224 0.537 0.363 0.881 0.363 0.69 0 1.25-0.56 1.25-1.25 0-0.344-0.139-0.656-0.364-0.882l0 0c-2.845-2.713-6.645-4.447-10.846-4.65l-0.039-0.002z"></path>
</svg>